# xmcd
# 
# Track frame offsets:
#     150
#     13814
#     28664
#     49983
#     67089
#     83793
#     100898
#     134258
#     153225
#     173148
#     187615
#     204091
#     217931
# 
# Disc length: 3150
# 
# Revision: 6
# Processed by: cddbd v1.5.2PL0 Copyright (c) Steve Scherf et al.
# Submitted via: fre:ac v1.0.17
# 
DISCID=a50c4c0d
DTITLE=Alan Jackson - Thirty Miles West
DYEAR=2012
DGENRE=Country
TTITLE0=Gonna Come Back As A Country Song
TTITLE1=You Go Your Way
TTITLE2=Everything But The Wings
TTITLE3=Talk Is Cheap
TTITLE4=So You Don't Have To Love Me Anymore
TTITLE5=Look Her In The Eye And Lie
TTITLE6=Dixie Highway (featuring Zac Brown)
TTITLE7=She Don't Get High
TTITLE8=Her Life's A Song
TTITLE9=Nothin' Fancy
TTITLE10=Long Way To Go
TTITLE11=Life Keeps Bringin' Me Down
TTITLE12=When I Saw You Leaving (for Nisey)
EXTD=
EXTT0=
EXTT1=
EXTT2=
EXTT3=
EXTT4=
EXTT5=
EXTT6=
EXTT7=
EXTT8=
EXTT9=
EXTT10=
EXTT11=
EXTT12=
PLAYORDER=
